<?xml version="1.0" encoding="iso-8859-1"?>
<!-- Generator: Adobe Illustrator 18.0.0, SVG Export Plug-In . SVG Version: 6.00 Build 0)  -->
<!DOCTYPE svg PUBLIC "-//W3C//DTD SVG 1.1//EN" "http://www.w3.org/Graphics/SVG/1.1/DTD/svg11.dtd">
<svg version="1.1" id="Layer_1" xmlns="http://www.w3.org/2000/svg" xmlns:xlink="http://www.w3.org/1999/xlink" x="0px" y="0px"
	 viewBox="0 0 50.624 51.004" style="enable-background:new 0 0 50.624 51.004;" xml:space="preserve">
<path style="stroke:#000000;stroke-width:2;stroke-miterlimit:10;" d="M49.21,8.865L42.275,1.93l-1.697,1.698l-2.375-2.373
	c-0.339-0.34-0.89-0.34-1.229,0L22.88,15.348c-0.34,0.34-0.34,0.89,0,1.23c0.17,0.17,0.393,0.255,0.615,0.255
	c0.223,0,0.445-0.085,0.615-0.255L37.588,3.1l1.76,1.758L9.462,34.742l2.015,2.016c-0.848-0.42-1.771-0.634-2.695-0.634
	c-1.561,0-3.122,0.596-4.313,1.787c-0.122,0.121-0.239,0.251-0.352,0.388c-0.056,0.065-0.108,0.133-0.159,0.201
	c-0.062,0.077-0.119,0.157-0.176,0.238c-0.042,0.059-0.085,0.117-0.124,0.176c-2.529,3.803-2.643,11.076-2.643,11.076
	s0.265,0.014,0.724,0.014c2.089,0,8.172-0.286,11.355-3.469c1.896-1.896,2.278-4.731,1.152-7.01l2.151,2.151L49.21,8.865z
	 M11.864,45.306c-1.941,1.941-5.348,2.611-7.776,2.84l3.959-3.959l-1.229-1.23L3.025,46.75c0.309-2.32,0.924-5.132,2.087-6.879
	l0.05-0.069l0.042-0.061c0.038-0.054,0.077-0.11,0.145-0.196c0.029-0.038,0.058-0.076,0.109-0.138
	c0.076-0.091,0.154-0.18,0.241-0.266c0.823-0.824,1.917-1.277,3.083-1.277c1.163,0,2.259,0.454,3.083,1.277
	C13.563,40.841,13.563,43.606,11.864,45.306z M46.75,8.865L36.435,19.181l-4.476-4.475L42.275,4.39L46.75,8.865z M30.729,15.936
	l4.476,4.475L16.398,39.218l-4.476-4.476L30.729,15.936z"/>
<g>
</g>
<g>
</g>
<g>
</g>
<g>
</g>
<g>
</g>
<g>
</g>
<g>
</g>
<g>
</g>
<g>
</g>
<g>
</g>
<g>
</g>
<g>
</g>
<g>
</g>
<g>
</g>
<g>
</g>
</svg>
