<?xml version="1.0" encoding="iso-8859-1"?>
<!-- Generator: Adobe Illustrator 18.0.0, SVG Export Plug-In . SVG Version: 6.00 Build 0)  -->
<!DOCTYPE svg PUBLIC "-//W3C//DTD SVG 1.1//EN" "http://www.w3.org/Graphics/SVG/1.1/DTD/svg11.dtd">
<svg version="1.1" id="Layer_1" xmlns="http://www.w3.org/2000/svg" xmlns:xlink="http://www.w3.org/1999/xlink" x="0px" y="0px"
	 viewBox="0 0 45.492 42.02" style="enable-background:new 0 0 45.492 42.02;" xml:space="preserve">
<path style="stroke:#000000;stroke-width:2;stroke-miterlimit:10;" d="M41.013,1H25.357c-1.046,0-1.974,0.472-2.611,1.204
	C22.108,1.472,21.181,1,20.134,1H4.479C2.558,1,1,2.558,1,4.479v29.583c0,1.921,1.558,3.479,3.479,3.479h15.655
	c0.017,0,0.034-0.005,0.051-0.005c0.926,0.022,1.671,0.769,1.694,1.692v1.792h1.739v-0.965h0.017v-0.784
	c0-0.94,0.751-1.705,1.685-1.734c0.012,0,0.025,0.004,0.037,0.004h15.655c1.921,0,3.479-1.558,3.479-3.479V4.479
	C44.492,2.558,42.934,1,41.013,1z M2.739,34.062V4.479c0-0.959,0.782-1.739,1.74-1.739h15.655c0.959,0,1.739,0.78,1.739,1.739
	v29.583c0,0.959-0.78,1.739-1.739,1.739H4.479C3.521,35.801,2.739,35.021,2.739,34.062z M42.752,34.062
	c0,0.959-0.78,1.739-1.74,1.739H25.357c-0.958,0-1.739-0.78-1.739-1.739v-0.711V4.479c0-0.959,0.781-1.739,1.739-1.739h15.655
	c0.96,0,1.74,0.78,1.74,1.739V34.062z"/>
<g>
</g>
<g>
</g>
<g>
</g>
<g>
</g>
<g>
</g>
<g>
</g>
<g>
</g>
<g>
</g>
<g>
</g>
<g>
</g>
<g>
</g>
<g>
</g>
<g>
</g>
<g>
</g>
<g>
</g>
</svg>
