<?xml version="1.0" encoding="iso-8859-1"?>
<!-- Generator: Adobe Illustrator 18.0.0, SVG Export Plug-In . SVG Version: 6.00 Build 0)  -->
<!DOCTYPE svg PUBLIC "-//W3C//DTD SVG 1.1//EN" "http://www.w3.org/Graphics/SVG/1.1/DTD/svg11.dtd">
<svg version="1.1" id="Layer_1" xmlns="http://www.w3.org/2000/svg" xmlns:xlink="http://www.w3.org/1999/xlink" x="0px" y="0px"
	 viewBox="0 0 173.145 221.991" style="enable-background:new 0 0 173.145 221.991;" xml:space="preserve">
<g>
	<path style="stroke:#000000;stroke-width:4;stroke-miterlimit:10;" d="M2,14.848v12.176h5.219v10.437h1.739V27.024h13.381
		l12.705,10.281V4.254L22.258,14.848H2z M3.74,25.284v-8.697h6.958v8.697H3.74z M23.368,16.187l9.936-8.233v25.705l-9.871-7.987
		l-0.478-0.388h-0.616h-9.902v-8.697h9.821h0.626L23.368,16.187z"/>
	<path style="stroke:#000000;stroke-width:4;stroke-miterlimit:10;" d="M163.955,189.197l-1.251,1.252
		c4.071,3.186,6.701,8.131,6.701,13.69c0,5.707-2.774,10.766-7.033,13.939l1.259,1.259c4.566-3.497,7.514-9.002,7.514-15.198
		C171.145,198.093,168.336,192.704,163.955,189.197z"/>
	<path style="stroke:#000000;stroke-width:4;stroke-miterlimit:10;" d="M158.365,194.789l-1.265,1.265
		c2.685,1.696,4.477,4.682,4.477,8.086c0,3.555-1.953,6.657-4.838,8.306l1.267,1.267c3.187-2,5.311-5.534,5.311-9.573
		C163.317,200.251,161.354,196.823,158.365,194.789z"/>
</g>
<g>
</g>
<g>
</g>
<g>
</g>
<g>
</g>
<g>
</g>
<g>
</g>
<g>
</g>
<g>
</g>
<g>
</g>
<g>
</g>
<g>
</g>
<g>
</g>
<g>
</g>
<g>
</g>
<g>
</g>
</svg>
