<?xml version="1.0" encoding="iso-8859-1"?>
<!-- Generator: Adobe Illustrator 18.0.0, SVG Export Plug-In . SVG Version: 6.00 Build 0)  -->
<!DOCTYPE svg PUBLIC "-//W3C//DTD SVG 1.1//EN" "http://www.w3.org/Graphics/SVG/1.1/DTD/svg11.dtd">
<svg version="1.1" id="Layer_1" xmlns="http://www.w3.org/2000/svg" xmlns:xlink="http://www.w3.org/1999/xlink" x="0px" y="0px"
	 viewBox="0 0 142.427 123.685" style="enable-background:new 0 0 142.427 123.685;" xml:space="preserve">
<g>
	<path style="stroke:#000000;stroke-width:2;stroke-miterlimit:10;" d="M10.567,40.375v34.638h11.908v29.69h3.969v-29.69h30.532
		l28.989,29.246V10.24L56.792,40.375H10.567z M14.537,70.064V45.323h15.876v24.741H14.537z M59.324,44.185l22.671-23.42v73.123
		L59.472,71.167l-1.091-1.103h-1.405H34.382V45.323h22.41h1.43L59.324,44.185z"/>
	<path style="stroke:#000000;stroke-width:2;stroke-miterlimit:10;" d="M113.434,14.742l-2.854,3.561
		c9.289,9.065,15.291,23.131,15.291,38.945c0,16.235-6.331,30.625-16.048,39.652l2.872,3.581
		c10.418-9.948,17.145-25.609,17.145-43.233C129.839,40.049,123.43,24.718,113.434,14.742z"/>
	<path style="stroke:#000000;stroke-width:2;stroke-miterlimit:10;" d="M100.678,30.648l-2.886,3.597
		c6.126,4.824,10.217,13.319,10.217,23.003c0,10.112-4.455,18.937-11.04,23.629l2.891,3.605
		c7.271-5.688,12.119-15.742,12.119-27.233C111.979,46.185,107.498,36.435,100.678,30.648z"/>
</g>
<g>
</g>
<g>
</g>
<g>
</g>
<g>
</g>
<g>
</g>
<g>
</g>
<g>
</g>
<g>
</g>
<g>
</g>
<g>
</g>
<g>
</g>
<g>
</g>
<g>
</g>
<g>
</g>
<g>
</g>
<g>
</g>
</svg>
