<?xml version="1.0" encoding="iso-8859-1"?>
<!-- Generator: Adobe Illustrator 18.0.0, SVG Export Plug-In . SVG Version: 6.00 Build 0)  -->
<!DOCTYPE svg PUBLIC "-//W3C//DTD SVG 1.1//EN" "http://www.w3.org/Graphics/SVG/1.1/DTD/svg11.dtd">
<svg version="1.1" id="Layer_1" xmlns="http://www.w3.org/2000/svg" xmlns:xlink="http://www.w3.org/1999/xlink" x="0px" y="0px"
	 viewBox="0 0 48 74.996" style="enable-background:new 0 0 48 74.996;" xml:space="preserve">
<g>
	<path style="stroke:#000000;stroke-width:4;stroke-miterlimit:10;" d="M13.321,37.079c0,9.126,6.457,16.524,14.422,16.524
		c7.967,0,14.424-7.398,14.424-16.524c0-9.128-6.457-16.525-14.424-16.525C19.778,20.554,13.321,27.951,13.321,37.079z
		 M27.743,22.293c7.116,0,12.905,6.633,12.905,14.786c0,8.152-5.789,14.785-12.905,14.785S14.84,45.231,14.84,37.079
		C14.84,28.926,20.627,22.293,27.743,22.293z"/>
	<path style="stroke:#000000;stroke-width:4;stroke-miterlimit:10;" d="M38.094,56.479l0.839,1.692l1.559-0.771l-2.365-4.775
		l-1.559,0.773l0.754,1.521c-2.798,1.425-5.913,2.181-9.079,2.181C17.207,57.1,8.23,48.118,8.23,37.079
		c0-7.52,4.261-14.418,10.914-17.825l0.809,1.632l1.559-0.772l-2.364-4.773l-1.559,0.772l0.785,1.583
		C11.13,21.395,6.491,28.898,6.491,37.079c0,11.706,9.29,21.279,20.882,21.738v2.647c-4.016,0.156-7.756,1.394-10.929,3.447h3.638
		c2.491-1.114,5.248-1.739,8.149-1.739c2.851,0,5.61,0.618,8.13,1.739h3.654c-3.213-2.069-6.967-3.285-10.902-3.447V58.81
		C32.245,58.685,35.313,57.891,38.094,56.479z"/>
</g>
<g>
</g>
<g>
</g>
<g>
</g>
<g>
</g>
<g>
</g>
<g>
</g>
<g>
</g>
<g>
</g>
<g>
</g>
<g>
</g>
<g>
</g>
<g>
</g>
<g>
</g>
<g>
</g>
<g>
</g>
</svg>
