<?xml version="1.0" encoding="iso-8859-1"?>
<!-- Generator: Adobe Illustrator 18.0.0, SVG Export Plug-In . SVG Version: 6.00 Build 0)  -->
<!DOCTYPE svg PUBLIC "-//W3C//DTD SVG 1.1//EN" "http://www.w3.org/Graphics/SVG/1.1/DTD/svg11.dtd">
<svg version="1.1" id="Layer_1" xmlns="http://www.w3.org/2000/svg" xmlns:xlink="http://www.w3.org/1999/xlink" x="0px" y="0px"
	 viewBox="0 0 142.427 123.685" style="enable-background:new 0 0 142.427 123.685;" xml:space="preserve">
<g>
</g>
<g>
	<path style="stroke:#000000;stroke-width:2;stroke-miterlimit:10;" d="M28.959,56.852c0,19.068,21.895,34.526,48.902,34.526
		c27.013,0,48.908-15.458,48.908-34.526c0-19.072-21.895-34.528-48.908-34.528C50.853,22.324,28.959,37.781,28.959,56.852z
		 M77.861,25.958c24.129,0,43.758,13.86,43.758,30.894c0,17.032-19.629,30.892-43.758,30.892s-43.752-13.86-43.752-30.892
		C34.109,39.818,53.732,25.958,77.861,25.958z"/>
	<path style="stroke:#000000;stroke-width:2;stroke-miterlimit:10;" d="M107.015,97.388l2.482,3.535l4.612-1.611l-6.999-9.978
		l-4.613,1.615l2.231,3.177c-8.28,2.978-17.499,4.557-26.869,4.557c-32.657,0-59.222-18.766-59.222-41.831
		c0-15.712,12.609-30.125,32.299-37.243l2.393,3.411l4.612-1.613l-6.997-9.974l-4.612,1.613l2.323,3.309
		c-21.438,7.728-35.166,23.404-35.166,40.497c0,24.46,27.493,44.461,61.797,45.419v5.53c-11.884,0.326-22.952,2.914-32.342,7.202
		h10.765c7.372-2.328,15.531-3.634,24.117-3.634c8.436,0,16.603,1.291,24.059,3.634h10.814c-9.508-4.323-20.617-6.864-32.264-7.202
		v-5.544C89.707,101.995,98.787,100.337,107.015,97.388z"/>
</g>
<g>
</g>
<g>
</g>
<g>
</g>
<g>
</g>
<g>
</g>
<g>
</g>
<g>
</g>
<g>
</g>
<g>
</g>
<g>
</g>
<g>
</g>
<g>
</g>
<g>
</g>
<g>
</g>
<g>
</g>
</svg>
