<?xml version="1.0" encoding="iso-8859-1"?>
<!-- Generator: Adobe Illustrator 18.0.0, SVG Export Plug-In . SVG Version: 6.00 Build 0)  -->
<!DOCTYPE svg PUBLIC "-//W3C//DTD SVG 1.1//EN" "http://www.w3.org/Graphics/SVG/1.1/DTD/svg11.dtd">
<svg version="1.1" id="Layer_1" xmlns="http://www.w3.org/2000/svg" xmlns:xlink="http://www.w3.org/1999/xlink" x="0px" y="0px"
	 viewBox="0 0 54.5 62" style="enable-background:new 0 0 54.5 62;" xml:space="preserve">
<g>
	<path style="stroke:#000000;stroke-width:4;stroke-miterlimit:10;" d="M13.718,27.171c0,9.126,7.398,16.524,16.524,16.524
		c9.128,0,16.526-7.398,16.526-16.524c0-9.128-7.399-16.525-16.526-16.525C21.116,10.646,13.718,18.044,13.718,27.171z
		 M30.242,12.385c8.153,0,14.786,6.633,14.786,14.786c0,8.152-6.633,14.785-14.786,14.785s-14.784-6.633-14.784-14.785
		C15.458,19.019,22.089,12.385,30.242,12.385z"/>
	<path style="stroke:#000000;stroke-width:4;stroke-miterlimit:10;" d="M40.094,46.572l0.839,1.692l1.559-0.771l-2.365-4.775
		l-1.559,0.773l0.754,1.521c-2.798,1.425-5.913,2.181-9.079,2.181c-11.035,0-20.012-8.981-20.012-20.02
		c0-7.52,4.261-14.418,10.914-17.825l0.809,1.632l1.559-0.772l-2.364-4.773l-1.559,0.772l0.785,1.584
		C13.13,11.488,8.491,18.99,8.491,27.171c0,11.706,9.29,21.279,20.882,21.738v2.646c-4.016,0.156-7.756,1.395-10.929,3.447h3.638
		c2.491-1.114,5.248-1.739,8.149-1.739c2.851,0,5.61,0.618,8.13,1.739h3.654c-3.213-2.069-6.967-3.285-10.902-3.447v-2.653
		C34.245,48.777,37.313,47.983,40.094,46.572z"/>
</g>
<g>
</g>
<g>
</g>
<g>
</g>
<g>
</g>
<g>
</g>
<g>
</g>
<g>
</g>
<g>
</g>
<g>
</g>
<g>
</g>
<g>
</g>
<g>
</g>
<g>
</g>
<g>
</g>
<g>
</g>
</svg>
