<?xml version="1.0" encoding="iso-8859-1"?>
<!-- Generator: Adobe Illustrator 18.0.0, SVG Export Plug-In . SVG Version: 6.00 Build 0)  -->
<!DOCTYPE svg PUBLIC "-//W3C//DTD SVG 1.1//EN" "http://www.w3.org/Graphics/SVG/1.1/DTD/svg11.dtd">
<svg version="1.1" id="Layer_1" xmlns="http://www.w3.org/2000/svg" xmlns:xlink="http://www.w3.org/1999/xlink" x="0px" y="0px"
	 viewBox="0 0 142.427 123.685" style="enable-background:new 0 0 142.427 123.685;" xml:space="preserve">
<g>
</g>
<g>
	<rect x="84.463" y="47.706" style="stroke:#000000;stroke-width:2;stroke-miterlimit:10;" width="29.404" height="4.012"/>
	<rect x="84.459" y="71.774" style="stroke:#000000;stroke-width:2;stroke-miterlimit:10;" width="29.408" height="4.011"/>
	<rect x="84.461" y="59.74" style="stroke:#000000;stroke-width:2;stroke-miterlimit:10;" width="20.972" height="4.011"/>
	<path style="stroke:#000000;stroke-width:2;stroke-miterlimit:10;" d="M80.258,23.639V11.604H63.454v12.035h-46.21v88.248h109.227
		V23.639H80.258z M122.268,27.649v8.023h-42.01v-8.023H122.268z M67.655,15.616h8.401v20.056h-8.401V15.616z M21.442,27.649h42.012
		v8.023H21.442V27.649z M21.442,107.876V39.683h42.012h16.804h42.01v68.193H21.442z"/>
	<path style="stroke:#000000;stroke-width:2;stroke-miterlimit:10;" d="M79.169,90.049c-3.033-1.207-10.193-3.581-14.628-4.83
		c-0.377-0.115-0.434-0.133-0.434-1.637c0-1.239,0.533-2.488,1.052-3.547c0.566-1.148,1.236-3.081,1.476-4.814
		c0.672-0.748,1.587-2.217,2.179-5.02c0.514-2.468,0.276-3.367-0.069-4.212c-0.038-0.089-0.073-0.175-0.101-0.264
		c-0.132-0.579,0.047-3.587,0.493-5.923c0.304-1.6-0.08-5.006-2.389-7.827c-1.458-1.778-4.245-3.966-9.347-4.27l-2.797,0.002
		c-5.01,0.302-7.804,2.489-9.259,4.267c-2.309,2.821-2.696,6.227-2.392,7.827c0.446,2.335,0.623,5.344,0.498,5.912
		c-0.026,0.1-0.066,0.186-0.104,0.275c-0.34,0.846-0.583,1.744-0.066,4.212c0.585,2.803,1.505,4.272,2.179,5.02
		c0.236,1.733,0.906,3.665,1.474,4.814c0.413,0.842,0.611,1.986,0.611,3.601c0,1.504-0.064,1.522-0.415,1.631
		c-4.585,1.293-11.882,3.808-14.601,4.945c-2.158,0.883-2.684,2.47-2.684,3.898c0,0.401,0,1.027,0,1.732h4.201v-1.732
		c0-0.063,0.005-0.113,0.009-0.151c0.038-0.02,0.085-0.045,0.156-0.072c2.585-1.081,9.743-3.545,14.191-4.799
		c3.342-1.014,3.342-4.011,3.342-5.452c0-2.22-0.318-3.909-1.01-5.312c-0.42-0.856-0.939-2.374-1.106-3.617l-0.163-1.197
		l-0.825-0.913c-0.127-0.136-0.769-0.932-1.24-3.184c-0.316-1.52-0.203-1.802-0.139-1.966c0.111-0.259,0.205-0.518,0.295-0.882
		c0.368-1.621-0.123-5.673-0.467-7.477c-0.113-0.591,0.05-2.79,1.566-4.64c1.33-1.625,3.377-2.541,6.094-2.728l2.519-0.001
		c2.764,0.188,4.84,1.105,6.172,2.729c1.516,1.85,1.677,4.049,1.564,4.639c-0.344,1.802-0.83,5.85-0.467,7.481l0.038,0.158
		l0.047,0.152c0.057,0.174,0.118,0.345,0.208,0.568c0.068,0.167,0.184,0.446-0.132,1.963c-0.476,2.254-1.12,3.057-1.245,3.196
		l-0.819,0.905l-0.163,1.187c-0.175,1.249-0.691,2.773-1.109,3.627c-0.679,1.376-1.458,3.216-1.458,5.258
		c0,1.441,0,4.441,3.448,5.484c4.196,1.182,11.231,3.502,14.156,4.668c0.443,0.18,0.604,0.405,0.648,0.487v1.621h4.201
		c0-0.705,0-1.331,0-1.732C82.357,92.682,81.322,90.934,79.169,90.049z"/>
</g>
<g>
</g>
<g>
</g>
<g>
</g>
<g>
</g>
<g>
</g>
<g>
</g>
<g>
</g>
<g>
</g>
<g>
</g>
<g>
</g>
<g>
</g>
<g>
</g>
<g>
</g>
<g>
</g>
<g>
</g>
</svg>
