<?xml version="1.0" encoding="iso-8859-1"?>
<!-- Generator: Adobe Illustrator 18.0.0, SVG Export Plug-In . SVG Version: 6.00 Build 0)  -->
<!DOCTYPE svg PUBLIC "-//W3C//DTD SVG 1.1//EN" "http://www.w3.org/Graphics/SVG/1.1/DTD/svg11.dtd">
<svg version="1.1" id="Layer_1" xmlns="http://www.w3.org/2000/svg" xmlns:xlink="http://www.w3.org/1999/xlink" x="0px" y="0px"
	 viewBox="0 0 566.252 122.929" style="enable-background:new 0 0 566.252 122.929;" xml:space="preserve">
<g>
	<rect x="552.077" y="100.055" style="stroke:#000000;stroke-width:4;stroke-miterlimit:10;" width="12.175" height="1.74"/>
	<rect x="552.075" y="110.492" style="stroke:#000000;stroke-width:4;stroke-miterlimit:10;" width="12.177" height="1.739"/>
	<rect x="552.076" y="105.274" style="stroke:#000000;stroke-width:4;stroke-miterlimit:10;" width="8.684" height="1.739"/>
	<path style="stroke:#000000;stroke-width:4;stroke-miterlimit:10;" d="M28.092,7.219V2h-6.958v5.219H2v38.268h45.227V7.219H28.092z
		 M45.486,8.958v3.479H28.092V8.958H45.486z M22.873,3.74h3.478v8.697h-3.478V3.74z M3.738,8.958h17.395v3.479H3.738V8.958z
		 M3.738,43.748V14.176h17.395h6.958h17.395v29.571H3.738z"/>
	<path style="stroke:#000000;stroke-width:4;stroke-miterlimit:10;" d="M549.885,118.417c-1.256-0.523-4.221-1.553-6.057-2.095
		c-0.156-0.05-0.18-0.058-0.18-0.71c0-0.537,0.221-1.079,0.436-1.538c0.234-0.498,0.512-1.336,0.611-2.087
		c0.278-0.324,0.657-0.961,0.902-2.177c0.213-1.07,0.114-1.46-0.028-1.827c-0.016-0.039-0.03-0.076-0.042-0.114
		c-0.055-0.251,0.02-1.556,0.204-2.568c0.126-0.694-0.033-2.171-0.989-3.394c-0.604-0.771-1.758-1.72-3.87-1.852l-1.158,0.001
		c-2.074,0.131-3.232,1.079-3.834,1.851c-0.956,1.223-1.116,2.7-0.99,3.394c0.185,1.013,0.258,2.317,0.206,2.564
		c-0.011,0.043-0.027,0.08-0.043,0.119c-0.141,0.367-0.241,0.756-0.027,1.827c0.242,1.215,0.623,1.853,0.902,2.177
		c0.098,0.751,0.375,1.589,0.61,2.087c0.171,0.365,0.253,0.861,0.253,1.561c0,0.652-0.026,0.66-0.172,0.707
		c-1.898,0.561-4.92,1.651-6.046,2.145c-0.893,0.383-1.111,1.071-1.111,1.69c0,0.174,0,0.445,0,0.751h1.739v-0.751
		c0-0.027,0.002-0.049,0.004-0.065c0.016-0.009,0.035-0.02,0.064-0.031c1.07-0.469,4.034-1.537,5.876-2.081
		c1.384-0.439,1.384-1.739,1.384-2.364c0-0.963-0.132-1.695-0.418-2.304c-0.174-0.371-0.389-1.029-0.458-1.568l-0.067-0.519
		l-0.342-0.396c-0.053-0.059-0.318-0.404-0.514-1.381c-0.131-0.659-0.084-0.781-0.058-0.853c0.046-0.112,0.085-0.225,0.122-0.382
		c0.152-0.703-0.051-2.46-0.193-3.242c-0.047-0.256,0.021-1.21,0.648-2.012c0.551-0.705,1.398-1.102,2.523-1.183l1.043-0.001
		c1.144,0.082,2.004,0.479,2.556,1.184c0.628,0.802,0.694,1.756,0.647,2.012c-0.142,0.781-0.344,2.537-0.193,3.244l0.016,0.068
		l0.019,0.066c0.023,0.076,0.049,0.149,0.086,0.246c0.028,0.072,0.076,0.193-0.055,0.851c-0.197,0.978-0.464,1.326-0.516,1.386
		l-0.339,0.393l-0.067,0.515c-0.072,0.541-0.286,1.203-0.459,1.573c-0.281,0.597-0.603,1.395-0.603,2.28
		c0,0.625,0,1.926,1.428,2.378c1.737,0.513,4.65,1.519,5.861,2.024c0.184,0.078,0.25,0.176,0.268,0.211v0.703h1.739
		c0-0.306,0-0.577,0-0.751C551.205,119.559,550.776,118.801,549.885,118.417z"/>
</g>
<g>
</g>
<g>
</g>
<g>
</g>
<g>
</g>
<g>
</g>
<g>
</g>
<g>
</g>
<g>
</g>
<g>
</g>
<g>
</g>
<g>
</g>
<g>
</g>
<g>
</g>
<g>
</g>
<g>
</g>
</svg>
