<?xml version="1.0" encoding="iso-8859-1"?>
<!-- Generator: Adobe Illustrator 18.0.0, SVG Export Plug-In . SVG Version: 6.00 Build 0)  -->
<!DOCTYPE svg PUBLIC "-//W3C//DTD SVG 1.1//EN" "http://www.w3.org/Graphics/SVG/1.1/DTD/svg11.dtd">
<svg version="1.1" id="Layer_1" xmlns="http://www.w3.org/2000/svg" xmlns:xlink="http://www.w3.org/1999/xlink" x="0px" y="0px"
	 viewBox="0 0 142.427 123.685" style="enable-background:new 0 0 142.427 123.685;" xml:space="preserve">
<g>
	<path style="stroke:#000000;stroke-width:2;stroke-miterlimit:10;" d="M23.26,14.261V110h97.786V14.261H23.26z M116.973,18.249
		V36.2H27.335V18.249H116.973z M27.335,106.01V40.19h89.637v65.82H27.335z"/>
	<rect x="53.816" y="24.234" style="stroke:#000000;stroke-width:2;stroke-miterlimit:10;" width="6.113" height="5.984"/>
	<rect x="84.376" y="24.234" style="stroke:#000000;stroke-width:2;stroke-miterlimit:10;" width="6.112" height="5.984"/>
	<path style="stroke:#000000;stroke-width:2;stroke-miterlimit:10;" d="M58.197,54.382c-0.73,4.853-3.087,4.937-7.832,5.105
		l-0.736,0.027v3.384h8.04v22.125h4.265v-31.28h-3.64L58.197,54.382z"/>
	<path style="stroke:#000000;stroke-width:2;stroke-miterlimit:10;" d="M82.248,63.784c-1.894,0-3.839,0.606-5.381,1.62l1.45-7.313
		h13.43v-3.964h-16.61l-3.241,16.94h3.687l0.224-0.345c1.289-1.965,3.639-3.187,6.136-3.187c4.065,0,7.014,2.944,7.014,6.998
		c0,3.665-2.349,7.378-6.839,7.378c-3.838,0-6.597-2.536-6.71-6.169l-0.024-0.724h-4.262l0.017,0.765
		c0.137,5.91,4.46,9.88,10.759,9.88c6.351,0,11.325-4.759,11.325-10.831C93.224,68.222,88.812,63.784,82.248,63.784z"/>
</g>
<g>
</g>
<g>
</g>
<g>
</g>
<g>
</g>
<g>
</g>
<g>
</g>
<g>
</g>
<g>
</g>
<g>
</g>
<g>
</g>
<g>
</g>
<g>
</g>
<g>
</g>
<g>
</g>
<g>
</g>
</svg>
