<?xml version="1.0" encoding="iso-8859-1"?>
<!-- Generator: Adobe Illustrator 18.0.0, SVG Export Plug-In . SVG Version: 6.00 Build 0)  -->
<!DOCTYPE svg PUBLIC "-//W3C//DTD SVG 1.1//EN" "http://www.w3.org/Graphics/SVG/1.1/DTD/svg11.dtd">
<svg version="1.1" id="Layer_1" xmlns="http://www.w3.org/2000/svg" xmlns:xlink="http://www.w3.org/1999/xlink" x="0px" y="0px"
	 viewBox="0 0 72.192 216.479" style="enable-background:new 0 0 72.192 216.479;" xml:space="preserve">
<g>
	<path style="stroke:#000000;stroke-width:4;stroke-miterlimit:10;" d="M2,2v41.748h41.748V2H2z M42.009,3.739v7.828H3.74V3.739
		H42.009z M3.74,42.008V13.307h38.269v28.701H3.74z"/>
	<rect x="53.368" y="187.693" style="stroke:#000000;stroke-width:4;stroke-miterlimit:10;" width="2.61" height="2.609"/>
	<rect x="66.415" y="187.693" style="stroke:#000000;stroke-width:4;stroke-miterlimit:10;" width="2.609" height="2.609"/>
	<path style="stroke:#000000;stroke-width:4;stroke-miterlimit:10;" d="M55.238,200.839c-0.312,2.116-1.318,2.153-3.344,2.226
		l-0.314,0.012v1.476h3.433v9.647h1.821v-13.64h-1.554L55.238,200.839z"/>
	<path style="stroke:#000000;stroke-width:4;stroke-miterlimit:10;" d="M65.506,204.939c-0.809,0-1.639,0.264-2.297,0.706
		l0.619-3.189h5.734v-1.729H62.47l-1.384,7.387h1.574l0.096-0.15c0.55-0.857,1.554-1.39,2.62-1.39c1.735,0,2.995,1.284,2.995,3.051
		c0,1.598-1.003,3.217-2.92,3.217c-1.639,0-2.816-1.106-2.865-2.69l-0.01-0.316h-1.819l0.007,0.333
		c0.059,2.577,1.904,4.308,4.593,4.308c2.711,0,4.835-2.075,4.835-4.723C70.192,206.874,68.309,204.939,65.506,204.939z"/>
</g>
<g>
</g>
<g>
</g>
<g>
</g>
<g>
</g>
<g>
</g>
<g>
</g>
<g>
</g>
<g>
</g>
<g>
</g>
<g>
</g>
<g>
</g>
<g>
</g>
<g>
</g>
<g>
</g>
<g>
</g>
</svg>
