<?xml version="1.0" encoding="iso-8859-1"?>
<!-- Generator: Adobe Illustrator 18.0.0, SVG Export Plug-In . SVG Version: 6.00 Build 0)  -->
<!DOCTYPE svg PUBLIC "-//W3C//DTD SVG 1.1//EN" "http://www.w3.org/Graphics/SVG/1.1/DTD/svg11.dtd">
<svg version="1.1" id="Layer_1" xmlns="http://www.w3.org/2000/svg" xmlns:xlink="http://www.w3.org/1999/xlink" x="0px" y="0px"
	 viewBox="0 0 142.427 123.685" style="enable-background:new 0 0 142.427 123.685;" xml:space="preserve">
<g>
	<path style="stroke:#000000;stroke-width:2;stroke-miterlimit:10;" d="M125.81,89.644V19H18v70.644h51.832v7.59l-19.664,10.309
		l2.008,3.434l19.729-10.345l19.728,10.345l2.009-3.434L73.978,97.235v-7.59H125.81z M22.146,22.925h99.517V85.72H22.146V22.925z"/>
	<polygon style="stroke:#000000;stroke-width:2;stroke-miterlimit:10;" points="69.159,62.879 56.863,46.648 48.635,61.748 
		35.698,37.039 26.252,70.036 30.253,71.063 36.84,48.058 48.562,70.445 57.443,54.148 70.717,71.671 82.184,35.261 78.211,34.137 	
		"/>
	<path style="stroke:#000000;stroke-width:2;stroke-miterlimit:10;" d="M100.932,42.548c-6.86,0-12.441,5.282-12.441,11.774
		c0,6.493,5.581,11.775,12.441,11.775c6.858,0,12.438-5.281,12.438-11.775C113.37,47.83,107.79,42.548,100.932,42.548z
		 M100.932,62.172c-4.574,0-8.295-3.52-8.295-7.849c0-4.329,3.721-7.849,8.295-7.849c4.572,0,8.292,3.521,8.292,7.849
		C109.225,58.652,105.504,62.172,100.932,62.172z"/>
</g>
<g>
</g>
<g>
</g>
<g>
</g>
<g>
</g>
<g>
</g>
<g>
</g>
<g>
</g>
<g>
</g>
<g>
</g>
<g>
</g>
<g>
</g>
<g>
</g>
<g>
</g>
<g>
</g>
<g>
</g>
</svg>
