<?xml version="1.0" encoding="iso-8859-1"?>
<!-- Generator: Adobe Illustrator 18.0.0, SVG Export Plug-In . SVG Version: 6.00 Build 0)  -->
<!DOCTYPE svg PUBLIC "-//W3C//DTD SVG 1.1//EN" "http://www.w3.org/Graphics/SVG/1.1/DTD/svg11.dtd">
<svg version="1.1" id="Layer_1" xmlns="http://www.w3.org/2000/svg" xmlns:xlink="http://www.w3.org/1999/xlink" x="0px" y="0px"
	 viewBox="0 0 67.996 307.037" style="enable-background:new 0 0 67.996 307.037;" xml:space="preserve">
<g>
	<path style="stroke:#000000;stroke-width:4;stroke-miterlimit:10;" d="M47.227,33.311V2H2v31.311h21.744v3.364l-8.249,4.569
		l0.842,1.522l8.276-4.585l8.276,4.585l0.843-1.522l-8.249-4.569v-3.364H47.227z M3.739,3.74h41.748v27.832H3.739V3.74z"/>
	<polygon style="stroke:#000000;stroke-width:4;stroke-miterlimit:10;" points="60.044,298.659 54.886,291.465 51.435,298.158 
		46.007,287.207 42.045,301.832 43.723,302.287 46.486,292.09 51.404,302.013 55.129,294.79 60.698,302.556 65.508,286.418 
		63.842,285.92 	"/>
	<path style="stroke:#000000;stroke-width:4;stroke-miterlimit:10;" d="M36.791,12.437c-2.878,0-5.219,2.341-5.219,5.218
		c0,2.878,2.341,5.219,5.219,5.219c2.877,0,5.218-2.341,5.218-5.219C42.008,14.778,39.667,12.437,36.791,12.437z M36.791,21.134
		c-1.919,0-3.48-1.56-3.48-3.479c0-1.918,1.561-3.479,3.48-3.479c1.918,0,3.479,1.561,3.479,3.479
		C40.269,19.574,38.708,21.134,36.791,21.134z"/>
</g>
<g>
</g>
<g>
</g>
<g>
</g>
<g>
</g>
<g>
</g>
<g>
</g>
<g>
</g>
<g>
</g>
<g>
</g>
<g>
</g>
<g>
</g>
<g>
</g>
<g>
</g>
<g>
</g>
<g>
</g>
</svg>
