<?xml version="1.0" encoding="iso-8859-1"?>
<!-- Generator: Adobe Illustrator 18.0.0, SVG Export Plug-In . SVG Version: 6.00 Build 0)  -->
<!DOCTYPE svg PUBLIC "-//W3C//DTD SVG 1.1//EN" "http://www.w3.org/Graphics/SVG/1.1/DTD/svg11.dtd">
<svg version="1.1" id="Layer_1" xmlns="http://www.w3.org/2000/svg" xmlns:xlink="http://www.w3.org/1999/xlink" x="0px" y="0px"
	 viewBox="0 0 51.835 52.706" style="enable-background:new 0 0 51.835 52.706;" xml:space="preserve">
<path style="stroke:#000000;stroke-width:4;stroke-miterlimit:10;" d="M45.487,2c-2.397,0-4.349,1.95-4.349,4.347
	c0,1.511,0.776,2.843,1.949,3.622l-8.223,21.672c-0.228-0.037-0.457-0.07-0.694-0.07c-1.042,0-1.987,0.384-2.737,0.997l-8.228-6.796
	c0.325-0.609,0.526-1.292,0.526-2.029c0-2.398-1.951-4.349-4.349-4.349c-2.398,0-4.349,1.951-4.349,4.349
	c0,1.295,0.58,2.448,1.483,3.245L7.751,42.259c-0.442-0.152-0.908-0.252-1.401-0.252c-2.398,0-4.35,1.95-4.35,4.346
	c0,2.4,1.951,4.352,4.35,4.352c2.397,0,4.348-1.952,4.348-4.352c0-1.277-0.565-2.417-1.446-3.213l8.776-15.287
	c0.43,0.143,0.88,0.239,1.356,0.239c1.032,0,1.968-0.377,2.714-0.979l8.236,6.802c-0.316,0.603-0.512,1.278-0.512,2.004
	c0,2.398,1.951,4.349,4.349,4.349c2.398,0,4.349-1.951,4.349-4.349c0-1.543-0.813-2.892-2.028-3.665l8.21-21.636
	c0.256,0.046,0.517,0.079,0.786,0.079c2.398,0,4.349-1.952,4.349-4.35C49.835,3.95,47.885,2,45.487,2z M6.35,48.966
	c-1.439,0-2.61-1.172-2.61-2.613c0-1.437,1.171-2.607,2.61-2.607c1.438,0,2.608,1.17,2.608,2.607
	C8.958,47.794,7.788,48.966,6.35,48.966z M19.384,26.353c-1.439,0-2.609-1.17-2.609-2.609c0-1.439,1.17-2.609,2.609-2.609
	c1.438,0,2.609,1.17,2.609,2.609C21.993,25.182,20.822,26.353,19.384,26.353z M34.171,38.529c-1.439,0-2.609-1.171-2.609-2.609
	c0-1.439,1.17-2.609,2.609-2.609s2.609,1.17,2.609,2.609C36.78,37.358,35.61,38.529,34.171,38.529z M45.487,8.958
	c-1.439,0-2.609-1.171-2.609-2.611c0-1.438,1.17-2.607,2.609-2.607c1.439,0,2.609,1.169,2.609,2.607
	C48.096,7.787,46.926,8.958,45.487,8.958z"/>
<g>
</g>
<g>
</g>
<g>
</g>
<g>
</g>
<g>
</g>
<g>
</g>
<g>
</g>
<g>
</g>
<g>
</g>
<g>
</g>
<g>
</g>
<g>
</g>
<g>
</g>
<g>
</g>
<g>
</g>
</svg>
