<?xml version="1.0" encoding="iso-8859-1"?>
<!-- Generator: Adobe Illustrator 18.0.0, SVG Export Plug-In . SVG Version: 6.00 Build 0)  -->
<!DOCTYPE svg PUBLIC "-//W3C//DTD SVG 1.1//EN" "http://www.w3.org/Graphics/SVG/1.1/DTD/svg11.dtd">
<svg version="1.1" id="Layer_1" xmlns="http://www.w3.org/2000/svg" xmlns:xlink="http://www.w3.org/1999/xlink" x="0px" y="0px"
	 viewBox="0 0 49.835 50.706" style="enable-background:new 0 0 49.835 50.706;" xml:space="preserve">
<path style="stroke:#000000;stroke-width:2;stroke-miterlimit:10;" d="M44.487,1c-2.397,0-4.349,1.95-4.349,4.347
	c0,1.511,0.776,2.843,1.949,3.622l-8.223,21.672c-0.228-0.037-0.457-0.07-0.694-0.07c-1.042,0-1.987,0.384-2.737,0.997l-8.228-6.796
	c0.325-0.609,0.526-1.292,0.526-2.029c0-2.398-1.951-4.349-4.349-4.349c-2.398,0-4.349,1.951-4.349,4.349
	c0,1.295,0.58,2.448,1.483,3.245L6.751,41.259c-0.442-0.152-0.908-0.252-1.401-0.252c-2.398,0-4.35,1.95-4.35,4.346
	c0,2.4,1.951,4.352,4.35,4.352c2.397,0,4.348-1.952,4.348-4.352c0-1.277-0.565-2.417-1.446-3.213l8.776-15.287
	c0.43,0.143,0.88,0.239,1.356,0.239c1.032,0,1.968-0.377,2.714-0.979l8.236,6.802c-0.316,0.603-0.512,1.278-0.512,2.004
	c0,2.398,1.951,4.349,4.349,4.349c2.398,0,4.349-1.951,4.349-4.349c0-1.543-0.813-2.892-2.028-3.665l8.21-21.636
	c0.256,0.046,0.517,0.079,0.786,0.079c2.398,0,4.349-1.952,4.349-4.35C48.835,2.95,46.885,1,44.487,1z M5.35,47.966
	c-1.439,0-2.61-1.172-2.61-2.613c0-1.437,1.171-2.607,2.61-2.607c1.438,0,2.608,1.17,2.608,2.607
	C7.958,46.794,6.788,47.966,5.35,47.966z M18.384,25.353c-1.439,0-2.609-1.17-2.609-2.609c0-1.439,1.17-2.609,2.609-2.609
	c1.438,0,2.609,1.17,2.609,2.609C20.993,24.182,19.822,25.353,18.384,25.353z M33.171,37.529c-1.439,0-2.609-1.171-2.609-2.609
	c0-1.439,1.17-2.609,2.609-2.609s2.609,1.17,2.609,2.609C35.78,36.358,34.61,37.529,33.171,37.529z M44.487,7.958
	c-1.439,0-2.609-1.171-2.609-2.611c0-1.438,1.17-2.607,2.609-2.607c1.439,0,2.609,1.169,2.609,2.607
	C47.096,6.787,45.926,7.958,44.487,7.958z"/>
<g>
</g>
<g>
</g>
<g>
</g>
<g>
</g>
<g>
</g>
<g>
</g>
<g>
</g>
<g>
</g>
<g>
</g>
<g>
</g>
<g>
</g>
<g>
</g>
<g>
</g>
<g>
</g>
<g>
</g>
</svg>
