<?xml version="1.0" encoding="iso-8859-1"?>
<!-- Generator: Adobe Illustrator 18.0.0, SVG Export Plug-In . SVG Version: 6.00 Build 0)  -->
<!DOCTYPE svg PUBLIC "-//W3C//DTD SVG 1.1//EN" "http://www.w3.org/Graphics/SVG/1.1/DTD/svg11.dtd">
<svg version="1.1" id="Layer_1" xmlns="http://www.w3.org/2000/svg" xmlns:xlink="http://www.w3.org/1999/xlink" x="0px" y="0px"
	 viewBox="0 0 50 50" style="enable-background:new 0 0 50 50;" xml:space="preserve">
<path style="fill:#F26722;" d="M25,0C11.192,0,0,11.193,0,25c0,13.809,11.192,25,25,25s25-11.191,25-25C50,11.193,38.808,0,25,0z
	 M26.964,26.617l3.23,9.353h-5.011h-5.378l3.22-9.328l0.55-1.596l-1.478-0.811c-1.926-1.057-3.121-3.074-3.121-5.266
	c0-3.309,2.691-6,6-6s6,2.691,6,6c0,2.176-1.186,4.186-3.093,5.246l-1.466,0.814L26.964,26.617z"/>
<g>
</g>
<g>
</g>
<g>
</g>
<g>
</g>
<g>
</g>
<g>
</g>
<g>
</g>
<g>
</g>
<g>
</g>
<g>
</g>
<g>
</g>
<g>
</g>
<g>
</g>
<g>
</g>
<g>
</g>
</svg>
