<?xml version="1.0" encoding="iso-8859-1"?>
<!-- Generator: Adobe Illustrator 18.0.0, SVG Export Plug-In . SVG Version: 6.00 Build 0)  -->
<!DOCTYPE svg PUBLIC "-//W3C//DTD SVG 1.1//EN" "http://www.w3.org/Graphics/SVG/1.1/DTD/svg11.dtd">
<svg version="1.1" id="Layer_1" xmlns="http://www.w3.org/2000/svg" xmlns:xlink="http://www.w3.org/1999/xlink" x="0px" y="0px"
	 viewBox="0 0 45.487 38.529" style="enable-background:new 0 0 45.487 38.529;" xml:space="preserve">
<g>
	<path style="stroke:#000000;stroke-width:2;stroke-miterlimit:10;" d="M1,1v36.529h43.487V1H1z M7.958,35.79H2.74v-6.958h5.218
		V35.79z M7.958,27.092H2.74v-6.957h5.218V27.092z M7.958,18.395H2.74v-6.958h5.218V18.395z M7.958,9.698H2.74V2.74h5.218V9.698z
		 M35.79,12.597v5.798v1.74v6.523v9.132H9.698v-9.132v-6.523v-1.74v-5.798V2.74H35.79V12.597z M42.748,35.79h-5.219v-6.958h5.219
		V35.79z M42.748,27.092h-5.219v-6.957h5.219V27.092z M42.748,18.395h-5.219v-6.958h5.219V18.395z M42.748,9.698h-5.219V2.74h5.219
		V9.698z"/>
	<path style="stroke:#000000;stroke-width:2;stroke-miterlimit:10;" d="M18.396,12.234v14.06l12.176-7.029L18.396,12.234z
		 M20.135,15.248l6.958,4.017l-6.958,4.018V15.248z"/>
</g>
<g>
</g>
<g>
</g>
<g>
</g>
<g>
</g>
<g>
</g>
<g>
</g>
<g>
</g>
<g>
</g>
<g>
</g>
<g>
</g>
<g>
</g>
<g>
</g>
<g>
</g>
<g>
</g>
<g>
</g>
</svg>
