<?xml version="1.0" encoding="iso-8859-1"?>
<!-- Generator: Adobe Illustrator 18.0.0, SVG Export Plug-In . SVG Version: 6.00 Build 0)  -->
<!DOCTYPE svg PUBLIC "-//W3C//DTD SVG 1.1//EN" "http://www.w3.org/Graphics/SVG/1.1/DTD/svg11.dtd">
<svg version="1.1" id="Layer_1" xmlns="http://www.w3.org/2000/svg" xmlns:xlink="http://www.w3.org/1999/xlink" x="0px" y="0px"
	 viewBox="0 0 47.487 40.529" style="enable-background:new 0 0 47.487 40.529;" xml:space="preserve">
<g>
	<path style="stroke:#000000;stroke-width:4;stroke-miterlimit:10;" d="M2,2v36.529h43.487V2H2z M8.958,36.79H3.74v-6.958h5.218
		V36.79z M8.958,28.092H3.74v-6.957h5.218V28.092z M8.958,19.395H3.74v-6.958h5.218V19.395z M8.958,10.698H3.74V3.74h5.218V10.698z
		 M36.79,13.597v5.798v1.74v6.523v9.132H10.698v-9.132v-6.523v-1.74v-5.798V3.74H36.79V13.597z M43.748,36.79h-5.219v-6.958h5.219
		V36.79z M43.748,28.092h-5.219v-6.957h5.219V28.092z M43.748,19.395h-5.219v-6.958h5.219V19.395z M43.748,10.698h-5.219V3.74h5.219
		V10.698z"/>
	<path style="stroke:#000000;stroke-width:4;stroke-miterlimit:10;" d="M19.396,13.234v14.06l12.176-7.029L19.396,13.234z
		 M21.135,16.247l6.958,4.017l-6.958,4.018V16.247z"/>
</g>
<g>
</g>
<g>
</g>
<g>
</g>
<g>
</g>
<g>
</g>
<g>
</g>
<g>
</g>
<g>
</g>
<g>
</g>
<g>
</g>
<g>
</g>
<g>
</g>
<g>
</g>
<g>
</g>
<g>
</g>
</svg>
