<?xml version="1.0" encoding="iso-8859-1"?>
<!-- Generator: Adobe Illustrator 18.0.0, SVG Export Plug-In . SVG Version: 6.00 Build 0)  -->
<!DOCTYPE svg PUBLIC "-//W3C//DTD SVG 1.1//EN" "http://www.w3.org/Graphics/SVG/1.1/DTD/svg11.dtd">
<svg version="1.1" id="Layer_1" xmlns="http://www.w3.org/2000/svg" xmlns:xlink="http://www.w3.org/1999/xlink" x="0px" y="0px"
	 viewBox="0 0 36.789 52.473" style="enable-background:new 0 0 36.789 52.473;" xml:space="preserve">
<path style="stroke:#000000;stroke-width:2;stroke-miterlimit:10;" d="M35.789,18.395C35.789,8.789,28.002,1,18.394,1
	C8.787,1,1,8.789,1,18.395c0,5.657,2.709,10.672,6.893,13.846l-0.008,0.004c0.08,0.054,0.163,0.116,0.248,0.183
	c0.008,0.006,0.015,0.013,0.023,0.019c1.346,1.063,3.28,3.544,3.28,6.82v12.206h13.916V39.267c0-3.479,2.01-5.975,3.479-6.967
	l-0.005-0.005C33.051,29.123,35.789,24.083,35.789,18.395z M13.176,49.733v-5.248h10.438v5.248H13.176z M18.394,20.133
	c-0.96,0-1.739-0.78-1.739-1.738c0-0.96,0.779-1.741,1.739-1.741c0.958,0,1.739,0.781,1.739,1.741
	C20.134,19.354,19.352,20.133,18.394,20.133z M27.781,30.903c-0.021,0.018-0.046,0.036-0.067,0.054
	c-1.925,1.369-4.101,4.317-4.101,8.309v3.479h-4.349V21.75c1.496-0.388,2.608-1.737,2.608-3.354c0-1.921-1.558-3.48-3.479-3.48
	s-3.478,1.559-3.478,3.48c0,1.618,1.11,2.967,2.608,3.354v20.996h-4.349v-3.479c0-3.746-2.123-6.75-3.927-8.173
	c-0.013-0.012-0.03-0.024-0.046-0.037c-0.058-0.045-0.114-0.087-0.168-0.128c-0.029-0.025-0.06-0.05-0.09-0.073
	C5,27.863,2.739,23.322,2.739,18.395c0-8.632,7.023-15.655,15.655-15.655c8.631,0,15.655,7.023,15.655,15.655
	C34.05,23.354,31.765,27.913,27.781,30.903z"/>
<g>
</g>
<g>
</g>
<g>
</g>
<g>
</g>
<g>
</g>
<g>
</g>
<g>
</g>
<g>
</g>
<g>
</g>
<g>
</g>
<g>
</g>
<g>
</g>
<g>
</g>
<g>
</g>
<g>
</g>
</svg>
