<?xml version="1.0" encoding="iso-8859-1"?>
<!-- Generator: Adobe Illustrator 18.0.0, SVG Export Plug-In . SVG Version: 6.00 Build 0)  -->
<!DOCTYPE svg PUBLIC "-//W3C//DTD SVG 1.1//EN" "http://www.w3.org/Graphics/SVG/1.1/DTD/svg11.dtd">
<svg version="1.1" id="Layer_1" xmlns="http://www.w3.org/2000/svg" xmlns:xlink="http://www.w3.org/1999/xlink" x="0px" y="0px"
	 viewBox="0 0 38.789 54.473" style="enable-background:new 0 0 38.789 54.473;" xml:space="preserve">
<path style="stroke:#000000;stroke-width:4;stroke-miterlimit:10;" d="M36.789,19.395C36.789,9.789,29.002,2,19.394,2
	C9.787,2,2,9.789,2,19.395c0,5.657,2.709,10.672,6.893,13.846l-0.008,0.004c0.08,0.054,0.163,0.116,0.248,0.183
	c0.008,0.006,0.015,0.013,0.023,0.019c1.346,1.063,3.28,3.544,3.28,6.82v12.206h13.916V40.267c0-3.479,2.01-5.975,3.479-6.967
	l-0.005-0.005C34.051,30.123,36.789,25.083,36.789,19.395z M14.176,50.733v-5.248h10.438v5.248H14.176z M19.394,21.133
	c-0.96,0-1.739-0.78-1.739-1.738c0-0.96,0.779-1.741,1.739-1.741c0.958,0,1.739,0.781,1.739,1.741
	C21.134,20.354,20.352,21.133,19.394,21.133z M28.781,31.903c-0.021,0.018-0.046,0.036-0.067,0.054
	c-1.925,1.369-4.101,4.317-4.101,8.309v3.479h-4.349V22.75c1.496-0.388,2.608-1.737,2.608-3.354c0-1.921-1.558-3.48-3.479-3.48
	s-3.478,1.559-3.478,3.48c0,1.618,1.11,2.967,2.608,3.354v20.996h-4.349v-3.479c0-3.746-2.123-6.75-3.927-8.173
	c-0.013-0.012-0.03-0.023-0.046-0.037c-0.058-0.044-0.114-0.087-0.168-0.127c-0.029-0.025-0.06-0.05-0.09-0.073
	C6,28.863,3.739,24.322,3.739,19.395c0-8.632,7.023-15.655,15.655-15.655c8.631,0,15.655,7.023,15.655,15.655
	C35.05,24.354,32.765,28.913,28.781,31.903z"/>
<g>
</g>
<g>
</g>
<g>
</g>
<g>
</g>
<g>
</g>
<g>
</g>
<g>
</g>
<g>
</g>
<g>
</g>
<g>
</g>
<g>
</g>
<g>
</g>
<g>
</g>
<g>
</g>
<g>
</g>
</svg>
