<?xml version="1.0" encoding="iso-8859-1"?>
<!-- Generator: Adobe Illustrator 18.0.0, SVG Export Plug-In . SVG Version: 6.00 Build 0)  -->
<!DOCTYPE svg PUBLIC "-//W3C//DTD SVG 1.1//EN" "http://www.w3.org/Graphics/SVG/1.1/DTD/svg11.dtd">
<svg version="1.1" id="Layer_1" xmlns="http://www.w3.org/2000/svg" xmlns:xlink="http://www.w3.org/1999/xlink" x="0px" y="0px"
	 viewBox="0 0 45.747 43.138" style="enable-background:new 0 0 45.747 43.138;" xml:space="preserve">
<g>
	<path style="stroke:#000000;stroke-width:4;stroke-miterlimit:10;" d="M43.747,2H2v11.307h1.74v27.832h38.269V13.307h1.739V2z
		 M40.268,39.399H5.479V13.307h34.789V39.399z M42.008,11.567H3.74l0,0V3.739h38.269V11.567z"/>
	<path style="stroke:#000000;stroke-width:4;stroke-miterlimit:10;" d="M16.582,24.621h12.625c1.797,0,3.256-1.416,3.256-3.164
		v-0.63c0-1.748-1.459-3.163-3.256-3.163H16.582c-1.797,0-3.253,1.416-3.253,3.163v0.63C13.329,23.205,14.785,24.621,16.582,24.621z
		 M15.068,20.827c0-0.786,0.679-1.424,1.514-1.424h12.625c0.836,0,1.517,0.639,1.517,1.424v0.63c0,0.786-0.681,1.424-1.517,1.424
		H16.582c-0.834,0-1.514-0.639-1.514-1.424V20.827z"/>
</g>
<g>
</g>
<g>
</g>
<g>
</g>
<g>
</g>
<g>
</g>
<g>
</g>
<g>
</g>
<g>
</g>
<g>
</g>
<g>
</g>
<g>
</g>
<g>
</g>
<g>
</g>
<g>
</g>
<g>
</g>
</svg>
