<?xml version="1.0" encoding="iso-8859-1"?>
<!-- Generator: Adobe Illustrator 18.0.0, SVG Export Plug-In . SVG Version: 6.00 Build 0)  -->
<!DOCTYPE svg PUBLIC "-//W3C//DTD SVG 1.1//EN" "http://www.w3.org/Graphics/SVG/1.1/DTD/svg11.dtd">
<svg version="1.1" id="Layer_1" xmlns="http://www.w3.org/2000/svg" xmlns:xlink="http://www.w3.org/1999/xlink" x="0px" y="0px"
	 viewBox="0 0 43.747 41.138" style="enable-background:new 0 0 43.747 41.138;" xml:space="preserve">
<g>
	<path style="stroke:#000000;stroke-width:2;stroke-miterlimit:10;" d="M42.747,1H1v11.307h1.74v27.832h38.269V12.307h1.739V1z
		 M39.268,38.399H4.479V12.307h34.789V38.399z M41.008,10.567H2.74l0,0V2.739h38.269V10.567z"/>
	<path style="stroke:#000000;stroke-width:2;stroke-miterlimit:10;" d="M15.582,23.621h12.624c1.797,0,3.256-1.416,3.256-3.164
		v-0.63c0-1.748-1.459-3.163-3.256-3.163H15.582c-1.797,0-3.253,1.416-3.253,3.163v0.63C12.329,22.205,13.785,23.621,15.582,23.621z
		 M14.068,19.827c0-0.786,0.679-1.424,1.514-1.424h12.624c0.836,0,1.517,0.639,1.517,1.424v0.63c0,0.786-0.681,1.424-1.517,1.424
		H15.582c-0.835,0-1.514-0.639-1.514-1.424V19.827z"/>
</g>
<g>
</g>
<g>
</g>
<g>
</g>
<g>
</g>
<g>
</g>
<g>
</g>
<g>
</g>
<g>
</g>
<g>
</g>
<g>
</g>
<g>
</g>
<g>
</g>
<g>
</g>
<g>
</g>
<g>
</g>
</svg>
