<?xml version="1.0" encoding="iso-8859-1"?>
<!-- Generator: Adobe Illustrator 18.0.0, SVG Export Plug-In . SVG Version: 6.00 Build 0)  -->
<!DOCTYPE svg PUBLIC "-//W3C//DTD SVG 1.1//EN" "http://www.w3.org/Graphics/SVG/1.1/DTD/svg11.dtd">
<svg version="1.1" id="Layer_1" xmlns="http://www.w3.org/2000/svg" xmlns:xlink="http://www.w3.org/1999/xlink" x="0px" y="0px"
	 viewBox="0 0 130 174" style="enable-background:new 0 0 130 174;" xml:space="preserve">
<g>
</g>
<g>
	<path style="stroke:#000000;stroke-width:2;stroke-miterlimit:10;" d="M67.09,118.65c19.398,0,35.127-12.98,35.127-28.992v-52.72
		c0-16.014-15.73-28.991-35.127-28.991c-19.394,0-35.125,12.977-35.125,28.991v52.72C31.965,105.669,47.696,118.65,67.09,118.65z
		 M38.352,36.938c0-13.079,12.89-23.72,28.738-23.72s28.741,10.641,28.741,23.72v52.72c0,13.081-12.893,23.721-28.741,23.721
		s-28.738-10.641-28.738-23.721V36.938z"/>
	<path style="stroke:#000000;stroke-width:2;stroke-miterlimit:10;" d="M114.974,63.298v26.36c0,21.798-21.484,39.535-47.899,39.535
		c-26.413,0-47.899-17.738-47.899-39.535v-26.36H12.79v26.36c0,23.934,22.873,43.489,51.518,44.69h-0.409v26.533H35.143v5.271
		h63.865v-5.271H70.285v-26.533h-0.441c28.645-1.202,51.517-20.756,51.517-44.69v-26.36H114.974z"/>
</g>
<g>
</g>
<g>
</g>
<g>
</g>
<g>
</g>
<g>
</g>
<g>
</g>
<g>
</g>
<g>
</g>
<g>
</g>
<g>
</g>
<g>
</g>
<g>
</g>
<g>
</g>
<g>
</g>
<g>
</g>
</svg>
