<?xml version="1.0" encoding="iso-8859-1"?>
<!-- Generator: Adobe Illustrator 18.0.0, SVG Export Plug-In . SVG Version: 6.00 Build 0)  -->
<!DOCTYPE svg PUBLIC "-//W3C//DTD SVG 1.1//EN" "http://www.w3.org/Graphics/SVG/1.1/DTD/svg11.dtd">
<svg version="1.1" id="Layer_1" xmlns="http://www.w3.org/2000/svg" xmlns:xlink="http://www.w3.org/1999/xlink" x="0px" y="0px"
	 viewBox="0 0 318.138 137.152" style="enable-background:new 0 0 318.138 137.152;" xml:space="preserve">
<g>
	<path style="stroke:#000000;stroke-width:4;stroke-miterlimit:10;" d="M11.567,38.53c5.283,0,9.567-4.283,9.567-9.567V11.566
		C21.134,6.282,16.85,2,11.567,2C6.285,2,2,6.282,2,11.566v17.396C2,34.246,6.285,38.53,11.567,38.53z M3.74,11.566
		c0-4.316,3.511-7.827,7.827-7.827s7.828,3.511,7.828,7.827v17.396c0,4.316-3.512,7.828-7.828,7.828S3.74,33.279,3.74,28.963V11.566
		z"/>
	<path style="stroke:#000000;stroke-width:4;stroke-miterlimit:10;" d="M314.398,101.212v8.698c0,7.193-5.852,13.046-13.046,13.046
		c-7.194,0-13.046-5.853-13.046-13.046v-8.698h-1.74v8.698c0,7.898,6.23,14.35,14.032,14.747h-0.111v8.755h-7.832v1.739h17.395
		v-1.739h-7.823v-8.755h-0.12c7.802-0.397,14.031-6.849,14.031-14.747v-8.698H314.398z"/>
</g>
<g>
</g>
<g>
</g>
<g>
</g>
<g>
</g>
<g>
</g>
<g>
</g>
<g>
</g>
<g>
</g>
<g>
</g>
<g>
</g>
<g>
</g>
<g>
</g>
<g>
</g>
<g>
</g>
<g>
</g>
</svg>
