<?xml version="1.0" encoding="iso-8859-1"?>
<!-- Generator: Adobe Illustrator 18.0.0, SVG Export Plug-In . SVG Version: 6.00 Build 0)  -->
<!DOCTYPE svg PUBLIC "-//W3C//DTD SVG 1.1//EN" "http://www.w3.org/Graphics/SVG/1.1/DTD/svg11.dtd">
<svg version="1.1" id="Layer_1" xmlns="http://www.w3.org/2000/svg" xmlns:xlink="http://www.w3.org/1999/xlink" x="0px" y="0px"
	 viewBox="0 0 54.184 33.311" style="enable-background:new 0 0 54.184 33.311;" xml:space="preserve">
<path style="stroke:#000000;stroke-width:2;stroke-miterlimit:10;" d="M53.184,15.786h-5.145V5.349H42.82V1h-6.958v14.786H18.468V1
	H11.51v4.349H6.291v10.437H1v1.739h5.291v10.437h5.218v4.349h6.958V17.525h17.395v14.786h6.958v-4.349h5.219V17.525h5.145V15.786z
	 M8.031,26.223V7.088h3.479v19.134H8.031z M16.728,30.571h-3.479v-2.609V5.349V2.74h3.479V30.571z M41.081,30.571h-3.479V2.74h3.479
	v2.609v22.613V30.571z M46.299,26.223H42.82V7.088h3.479V26.223z"/>
<g>
</g>
<g>
</g>
<g>
</g>
<g>
</g>
<g>
</g>
<g>
</g>
<g>
</g>
<g>
</g>
<g>
</g>
<g>
</g>
<g>
</g>
<g>
</g>
<g>
</g>
<g>
</g>
<g>
</g>
</svg>
