<?xml version="1.0" encoding="iso-8859-1"?>
<!-- Generator: Adobe Illustrator 18.0.0, SVG Export Plug-In . SVG Version: 6.00 Build 0)  -->
<!DOCTYPE svg PUBLIC "-//W3C//DTD SVG 1.1//EN" "http://www.w3.org/Graphics/SVG/1.1/DTD/svg11.dtd">
<svg version="1.1" id="Layer_1" xmlns="http://www.w3.org/2000/svg" xmlns:xlink="http://www.w3.org/1999/xlink" x="0px" y="0px"
	 viewBox="0 0 43.747 43.748" style="enable-background:new 0 0 43.747 43.748;" xml:space="preserve">
<path style="stroke:#000000;stroke-width:2;stroke-miterlimit:10;" d="M21.874,1C10.345,1,1,10.346,1,21.874
	c0,11.527,9.345,20.874,20.874,20.874c11.527,0,20.873-9.347,20.873-20.874C42.747,10.346,33.401,1,21.874,1z M10.425,37.196
	c1.277-0.47,2.679-0.943,3.926-1.362c4.259-1.431,4.914-1.651,4.914-3.087v-1.885v-1.474l-1.453-0.242
	c-0.104-0.018-2.553-0.422-4.2-0.422c-0.849,0-1.332-0.021-1.796-0.327c1.198-2.621,2.436-6.722,2.905-9.966l0.09,0.031l0.128-2.299
	c0.205-3.683,3.251-6.568,6.936-6.568c3.685,0,6.731,2.885,6.936,6.568l0.152,2.291l0.066-0.022
	c0.469,3.244,1.708,7.345,2.905,9.966c-0.464,0.306-0.948,0.327-1.796,0.327c-1.669,0-4.035,0.527-4.299,0.587l-1.354,0.308v1.389
	v1.74c0,1.421,0.681,1.662,5.103,3.224c1.147,0.406,2.43,0.86,3.618,1.311c-3.174,2.34-7.093,3.727-11.33,3.727
	C17.584,41.008,13.621,39.589,10.425,37.196z M34.75,36.015c-3.548-1.404-8.527-2.947-8.527-3.269c0-0.398,0-1.74,0-1.74
	s2.392-0.543,3.914-0.543c1.522,0,2.609-0.095,3.914-1.726c-1.631-2.881-3.479-9.363-3.479-12.679l-0.025,0.009
	c-0.254-4.576-4.033-8.212-8.672-8.212c-4.639,0-8.419,3.636-8.673,8.212l-0.025-0.009c0,3.316-1.848,9.798-3.479,12.679
	c1.305,1.631,2.392,1.726,3.914,1.726s3.914,0.399,3.914,0.399s0,1.487,0,1.885c0,0.326-5.092,1.792-8.632,3.168
	C5.112,32.417,2.74,27.419,2.74,21.874c0-10.55,8.583-19.134,19.134-19.134c10.55,0,19.134,8.584,19.134,19.134
	C41.008,27.47,38.592,32.513,34.75,36.015z"/>
<g>
</g>
<g>
</g>
<g>
</g>
<g>
</g>
<g>
</g>
<g>
</g>
<g>
</g>
<g>
</g>
<g>
</g>
<g>
</g>
<g>
</g>
<g>
</g>
<g>
</g>
<g>
</g>
<g>
</g>
</svg>
