<?xml version="1.0" encoding="iso-8859-1"?>
<!-- Generator: Adobe Illustrator 18.0.0, SVG Export Plug-In . SVG Version: 6.00 Build 0)  -->
<!DOCTYPE svg PUBLIC "-//W3C//DTD SVG 1.1//EN" "http://www.w3.org/Graphics/SVG/1.1/DTD/svg11.dtd">
<svg version="1.1" id="Layer_1" xmlns="http://www.w3.org/2000/svg" xmlns:xlink="http://www.w3.org/1999/xlink" x="0px" y="0px"
	 viewBox="0 0 48.697 48.691" style="enable-background:new 0 0 48.697 48.691;" xml:space="preserve">
<path style="stroke:#000000;stroke-width:2;stroke-miterlimit:10;" d="M46.425,40.268l-9.225-9.225l1.23-1.231l-1.229-1.229
	l-3.689,3.688l-6.151-6.15l7.391-7.393c0.984,0.351,2.015,0.528,3.07,0.528c2.436,0,4.727-0.949,6.449-2.67
	c2.659-2.66,3.413-6.614,1.922-10.071l-0.507-1.177l-3.965,3.964L38.53,9.345l0.042-3.044l4.042-4.04l-1.175-0.508
	C40.287,1.253,39.062,1,37.802,1c-2.438,0-4.727,0.949-6.448,2.671c-2.522,2.521-3.332,6.203-2.139,9.527l-7.389,7.388L11.37,10.132
	l1.231-1.23L5.839,2.139L2.145,5.827l6.767,6.765l1.229-1.23l10.456,10.455l-7.389,7.389c-0.987-0.353-2.021-0.532-3.08-0.532
	c-2.436,0-4.727,0.949-6.448,2.671c-2.664,2.663-3.417,6.622-1.918,10.083l0.509,1.174l4.04-4.041l3.044-0.041L9.31,41.714
	l-3.964,3.964l1.178,0.507c1.148,0.495,2.368,0.746,3.623,0.746c2.437,0,4.726-0.948,6.447-2.669
	c2.519-2.519,3.33-6.197,2.144-9.516l7.394-7.394l6.151,6.149l-3.691,3.691l1.231,1.229l1.229-1.229l9.224,9.224
	c0.821,0.822,1.915,1.275,3.076,1.275c1.161,0,2.253-0.453,3.075-1.275C48.122,44.722,48.121,41.963,46.425,40.268z M4.607,5.827
	l1.23-1.228l4.304,4.304l-1.23,1.23L4.607,5.827z M16.923,34.877c1.206,2.8,0.595,6.001-1.558,8.155
	c-1.394,1.393-3.246,2.16-5.218,2.16c-0.566,0-1.124-0.063-1.666-0.188l2.559-2.559l0.077-5.686L5.58,36.833l-2.641,2.642
	c-0.581-2.463,0.132-5.062,1.97-6.899c1.395-1.394,3.247-2.162,5.219-2.162c1.021,0,2.012,0.205,2.945,0.609l0.543,0.234
	l17.65-17.65l-0.234-0.543c-1.214-2.804-0.604-6.008,1.553-8.163c1.393-1.394,3.246-2.162,5.218-2.162
	c0.571,0,1.133,0.064,1.681,0.191l-2.64,2.64l-0.077,5.538l5.686-0.078l2.562-2.561c0.574,2.459-0.141,5.053-1.973,6.887
	c-1.395,1.392-3.248,2.161-5.22,2.161c-1.019,0-2.007-0.204-2.938-0.605l-0.542-0.233L16.689,34.335L16.923,34.877z M45.197,45.187
	c-0.494,0.493-1.149,0.765-1.846,0.765c-0.697,0-1.353-0.272-1.846-0.765l-9.225-9.224l3.689-3.689l9.226,9.225
	C46.214,42.516,46.214,44.17,45.197,45.187z"/>
<g>
</g>
<g>
</g>
<g>
</g>
<g>
</g>
<g>
</g>
<g>
</g>
<g>
</g>
<g>
</g>
<g>
</g>
<g>
</g>
<g>
</g>
<g>
</g>
<g>
</g>
<g>
</g>
<g>
</g>
</svg>
